<?xml version="1.0" encoding="utf-8"?>
<svg width="480" height="421" viewBox="0 0 480 421" xmlns="http://www.w3.org/2000/svg">
<rect id="frame" x="0" y="0" width="480" height="421" fill="#f7f7f7" stroke="none" stroke-width="0"/>

<!-- Association ADD -->
<g>
	<line x1="183" y1="51" x2="307" y2="51" stroke="#de77ae" stroke-width="2"/>
	<text x="234" y="68" fill="#4d9221" font-family="Verdana" font-size="12">0,N</text>
	<line x1="424" y1="160" x2="307" y2="51" stroke="#de77ae" stroke-width="2"/>
	<text x="350" y="126.5" fill="#4d9221" font-family="Verdana" font-size="12">0,N</text>
	<g>
		<path d="M314 26 a14 14 90 0 1 14 14 V51 h-42 V40 a14 14 90 0 1 14 -14" fill="#f1b6da" stroke="#f1b6da" stroke-width="0"/>
		<path d="M328 51 v11 a14 14 90 0 1 -14 14 H300 a14 14 90 0 1 -14 -14 V51 H42" fill="#fde0ef" stroke="#fde0ef" stroke-width="0"/>
		<rect x="286" y="26" width="42" height="50" fill="none" rx="14" stroke="#de77ae" stroke-width="2"/>
		<line x1="286" y1="51" x2="328" y2="51" stroke="#de77ae" stroke-width="1"/>
		<text x="293" y="43.75" fill="#000" font-family="Verdana" font-size="12">ADD</text>
	</g>
</g>

<!-- Association CUSTOMIZE -->
<g>
	<line x1="183" y1="51" x2="53" y2="160" stroke="#de77ae" stroke-width="2"/>
	<text x="111" y="87.76" fill="#4d9221" font-family="Verdana" font-size="12">0,1</text>
	<line x1="53" y1="286" x2="53" y2="160" stroke="#de77ae" stroke-width="2"/>
	<text x="58" y="202" fill="#4d9221" font-family="Verdana" font-size="12">0,N</text>
	<g>
		<path d="M83 135 a14 14 90 0 1 14 14 V160 h-88 V149 a14 14 90 0 1 14 -14" fill="#f1b6da" stroke="#f1b6da" stroke-width="0"/>
		<path d="M97 160 v11 a14 14 90 0 1 -14 14 H23 a14 14 90 0 1 -14 -14 V160 H88" fill="#fde0ef" stroke="#fde0ef" stroke-width="0"/>
		<rect x="9" y="135" width="88" height="50" fill="none" rx="14" stroke="#de77ae" stroke-width="2"/>
		<line x1="9" y1="160" x2="97" y2="160" stroke="#de77ae" stroke-width="1"/>
		<text x="16" y="152.75" fill="#000" font-family="Verdana" font-size="12">CUSTOMIZE</text>
	</g>
</g>

<!-- Association COMPOSE -->
<g>
	<line x1="307" y1="387" x2="307" y2="160" stroke="#de77ae" stroke-width="2"/>
	<text x="281" y="354" fill="#4d9221" font-family="Verdana" font-size="12">0,1</text>
	<line x1="183" y1="160" x2="307" y2="160" stroke="#de77ae" stroke-width="2"/>
	<text x="242" y="177" fill="#4d9221" font-family="Verdana" font-size="12">1,1</text>
	<g>
		<path d="M331 135 a14 14 90 0 1 14 14 V160 h-76 V149 a14 14 90 0 1 14 -14" fill="#f1b6da" stroke="#f1b6da" stroke-width="0"/>
		<path d="M345 160 v11 a14 14 90 0 1 -14 14 H283 a14 14 90 0 1 -14 -14 V160 H76" fill="#fde0ef" stroke="#fde0ef" stroke-width="0"/>
		<rect x="269" y="135" width="76" height="50" fill="none" rx="14" stroke="#de77ae" stroke-width="2"/>
		<line x1="269" y1="160" x2="345" y2="160" stroke="#de77ae" stroke-width="1"/>
		<text x="277" y="152.75" fill="#000" font-family="Verdana" font-size="12">COMPOSE</text>
	</g>
</g>

<!-- Association GENERATE -->
<g>
	<line x1="53" y1="286" x2="183" y2="286" stroke="#de77ae" stroke-width="2"/>
	<text x="95" y="278" fill="#4d9221" font-family="Verdana" font-size="12">0,N</text>
	<line x1="183" y1="160" x2="183" y2="286" stroke="#de77ae" stroke-width="2"/>
	<text x="188" y="219" fill="#4d9221" font-family="Verdana" font-size="12">0,1</text>
	<g>
		<path d="M209 261 a14 14 90 0 1 14 14 V286 h-80 V275 a14 14 90 0 1 14 -14" fill="#f1b6da" stroke="#f1b6da" stroke-width="0"/>
		<path d="M223 286 v11 a14 14 90 0 1 -14 14 H157 a14 14 90 0 1 -14 -14 V286 H80" fill="#fde0ef" stroke="#fde0ef" stroke-width="0"/>
		<rect x="143" y="261" width="80" height="50" fill="none" rx="14" stroke="#de77ae" stroke-width="2"/>
		<line x1="143" y1="286" x2="223" y2="286" stroke="#de77ae" stroke-width="1"/>
		<text x="150" y="278.75" fill="#000" font-family="Verdana" font-size="12">GENERATE</text>
	</g>
</g>

<!-- Association POSSESS -->
<g>
	<line x1="307" y1="387" x2="424" y2="286" stroke="#de77ae" stroke-width="2"/>
	<text x="315.3" y="354" fill="#4d9221" font-family="Verdana" font-size="12">0,N</text>
	<line x1="424" y1="160" x2="424" y2="286" stroke="#de77ae" stroke-width="2"/>
	<text x="429" y="236" fill="#4d9221" font-family="Verdana" font-size="12">0,N</text>
	<g>
		<path d="M446 261 a14 14 90 0 1 14 14 V286 h-72 V275 a14 14 90 0 1 14 -14" fill="#f1b6da" stroke="#f1b6da" stroke-width="0"/>
		<path d="M460 286 v11 a14 14 90 0 1 -14 14 H402 a14 14 90 0 1 -14 -14 V286 H72" fill="#fde0ef" stroke="#fde0ef" stroke-width="0"/>
		<rect x="388" y="261" width="72" height="50" fill="none" rx="14" stroke="#de77ae" stroke-width="2"/>
		<line x1="388" y1="286" x2="460" y2="286" stroke="#de77ae" stroke-width="1"/>
		<text x="395" y="278.75" fill="#000" font-family="Verdana" font-size="12">POSSESS</text>
	</g>
</g>

<!-- Association UPDATE -->
<g>
	<line x1="307" y1="387" x2="183" y2="387" stroke="#de77ae" stroke-width="2"/>
	<text x="246" y="404" fill="#4d9221" font-family="Verdana" font-size="12">0,1</text>
	<line x1="53" y1="286" x2="183" y2="387" stroke="#de77ae" stroke-width="2"/>
	<text x="95" y="312.57" fill="#4d9221" font-family="Verdana" font-size="12">0,N</text>
	<g>
		<path d="M201 362 a14 14 90 0 1 14 14 V387 h-64 V376 a14 14 90 0 1 14 -14" fill="#f1b6da" stroke="#f1b6da" stroke-width="0"/>
		<path d="M215 387 v11 a14 14 90 0 1 -14 14 H165 a14 14 90 0 1 -14 -14 V387 H64" fill="#fde0ef" stroke="#fde0ef" stroke-width="0"/>
		<rect x="151" y="362" width="64" height="50" fill="none" rx="14" stroke="#de77ae" stroke-width="2"/>
		<line x1="151" y1="387" x2="215" y2="387" stroke="#de77ae" stroke-width="1"/>
		<text x="159" y="379.75" fill="#000" font-family="Verdana" font-size="12">UPDATE</text>
	</g>
</g>

<!-- Entity WISHLIST -->
<g>
	<g>
		<rect x="137" y="9" width="92" height="25" fill="#b8e186" stroke="#b8e186" stroke-width="0" opacity="1"/>
		<rect x="137" y="34" width="92" height="59" fill="#e6f5d0" stroke="#e6f5d0" stroke-width="0" opacity="1"/>
		<rect x="137" y="9" width="92" height="84" fill="none" stroke="#7fbc41" stroke-width="2" opacity="1"/>
		<line x1="137" y1="34" x2="229" y2="34" stroke="#7fbc41" stroke-width="1"/>
	</g>
	<text x="152" y="26.75" fill="#000" font-family="Verdana" font-size="12">WISHLIST</text>
	<text x="142" y="51.8" fill="#000" font-family="Verdana" font-size="12">code_wishlist</text>
	<line x1="142" y1="54" x2="223" y2="54" stroke="#000" stroke-width="1"/>
	<text x="142" y="68.8" fill="#000" font-family="Verdana" font-size="12">name</text>
	<text x="142" y="85.8" fill="#000" font-family="Verdana" font-size="12">date</text>
</g>

<!-- Entity ORDER -->
<g>
	<g>
		<rect x="129" y="118" width="108" height="25" fill="#b8e186" stroke="#b8e186" stroke-width="0" opacity="1"/>
		<rect x="129" y="143" width="108" height="59" fill="#e6f5d0" stroke="#e6f5d0" stroke-width="0" opacity="1"/>
		<rect x="129" y="118" width="108" height="84" fill="none" stroke="#7fbc41" stroke-width="2" opacity="1"/>
		<line x1="129" y1="143" x2="237" y2="143" stroke="#7fbc41" stroke-width="1"/>
	</g>
	<text x="161" y="135.75" fill="#000" font-family="Verdana" font-size="12">ORDER</text>
	<text x="134" y="160.8" fill="#000" font-family="Verdana" font-size="12">code_order</text>
	<line x1="134" y1="163" x2="203" y2="163" stroke="#000" stroke-width="1"/>
	<text x="134" y="177.8" fill="#000" font-family="Verdana" font-size="12">date</text>
	<text x="134" y="194.8" fill="#000" font-family="Verdana" font-size="12">paymentMethod</text>
</g>

<!-- Entity PRODUCT -->
<g>
	<g>
		<rect x="377" y="101" width="94" height="25" fill="#b8e186" stroke="#b8e186" stroke-width="0" opacity="1"/>
		<rect x="377" y="126" width="94" height="93" fill="#e6f5d0" stroke="#e6f5d0" stroke-width="0" opacity="1"/>
		<rect x="377" y="101" width="94" height="118" fill="none" stroke="#7fbc41" stroke-width="2" opacity="1"/>
		<line x1="377" y1="126" x2="471" y2="126" stroke="#7fbc41" stroke-width="1"/>
	</g>
	<text x="394" y="118.75" fill="#000" font-family="Verdana" font-size="12">PRODUCT</text>
	<text x="382" y="143.8" fill="#000" font-family="Verdana" font-size="12">code_product</text>
	<line x1="382" y1="146" x2="465" y2="146" stroke="#000" stroke-width="1"/>
	<text x="382" y="160.8" fill="#000" font-family="Verdana" font-size="12">name</text>
	<text x="382" y="177.8" fill="#000" font-family="Verdana" font-size="12">color</text>
	<text x="382" y="194.8" fill="#000" font-family="Verdana" font-size="12">size</text>
	<text x="382" y="211.8" fill="#000" font-family="Verdana" font-size="12">price</text>
</g>

<!-- Entity USER -->
<g>
	<g>
		<rect x="16" y="210" width="74" height="25" fill="#b8e186" stroke="#b8e186" stroke-width="0" opacity="1"/>
		<rect x="16" y="235" width="74" height="127" fill="#e6f5d0" stroke="#e6f5d0" stroke-width="0" opacity="1"/>
		<rect x="16" y="210" width="74" height="152" fill="none" stroke="#7fbc41" stroke-width="2" opacity="1"/>
		<line x1="16" y1="235" x2="90" y2="235" stroke="#7fbc41" stroke-width="1"/>
	</g>
	<text x="36" y="227.75" fill="#000" font-family="Verdana" font-size="12">USER</text>
	<text x="21" y="252.8" fill="#000" font-family="Verdana" font-size="12">code_user</text>
	<line x1="21" y1="255" x2="84" y2="255" stroke="#000" stroke-width="1"/>
	<text x="21" y="269.8" fill="#000" font-family="Verdana" font-size="12">firstname</text>
	<text x="21" y="286.8" fill="#000" font-family="Verdana" font-size="12">lastname</text>
	<text x="21" y="303.8" fill="#000" font-family="Verdana" font-size="12">email</text>
	<text x="21" y="320.8" fill="#000" font-family="Verdana" font-size="12">password</text>
	<text x="21" y="337.8" fill="#000" font-family="Verdana" font-size="12">address</text>
	<text x="21" y="354.8" fill="#000" font-family="Verdana" font-size="12">zipcode</text>
</g>

<!-- Entity CART -->
<g>
	<g>
		<rect x="272" y="362" width="70" height="25" fill="#b8e186" stroke="#b8e186" stroke-width="0" opacity="1"/>
		<rect x="272" y="387" width="70" height="25" fill="#e6f5d0" stroke="#e6f5d0" stroke-width="0" opacity="1"/>
		<rect x="272" y="362" width="70" height="50" fill="none" stroke="#7fbc41" stroke-width="2" opacity="1"/>
		<line x1="272" y1="387" x2="342" y2="387" stroke="#7fbc41" stroke-width="1"/>
	</g>
	<text x="291" y="379.75" fill="#000" font-family="Verdana" font-size="12">CART</text>
	<text x="277" y="404.8" fill="#000" font-family="Verdana" font-size="12">code_cart</text>
	<line x1="277" y1="407" x2="337" y2="407" stroke="#000" stroke-width="1"/>
</g>
</svg>